<svg width="31" height="19" viewBox="0 0 31 19" fill="none" xmlns="http://www.w3.org/2000/svg">
<path d="M28.0938 0H2.90625C1.30115 0 0 1.04067 0 2.32443V16.271C0 17.5548 1.30115 18.5955 2.90625 18.5955H28.0938C29.6988 18.5955 31 17.5548 31 16.271V2.32443C31 1.04067 29.6988 0 28.0938 0ZM28.0938 2.32443V4.30044C26.7362 5.18465 24.5719 6.55955 19.9449 9.45729C18.9253 10.0988 16.9054 11.6399 15.5 11.622C14.0948 11.6401 12.0743 10.0985 11.0551 9.45729C6.42887 6.55998 4.26401 5.18479 2.90625 4.30044V2.32443H28.0938ZM2.90625 16.271V7.28312C4.29362 8.16694 6.26109 9.40717 9.25992 11.2853C10.5833 12.1185 12.9008 13.9577 15.5 13.9465C18.0864 13.9577 20.3746 12.1452 21.7395 11.2857C24.7383 9.40761 26.7063 8.16704 28.0938 7.28317V16.271H2.90625Z" fill="#70CBCE"/>
</svg>
